# xmcd CD database file
#
# Track frame offsets:
#	150
#	13362
#	22582
#	36160
#	49957
#	65037
#	76107
#	92910
#	109025
#	126797
#	142877
#	158042
#	173755
#	184065
#	198430
#	208955
#	221322
#	236467
#	248659
#	260867
#	277082
#	295752
#	311769
#	322944
#
# Disc length: 4484 seconds
#
# Revision: 5
# Processed by: cddbd v1.5.2PL0 Copyright (c) Steve Scherf et al.
# Submitted via: CDex 2.13
#
DISCID=5b118218
DTITLE=A New Musical Based On The Songs Of Abba - Mamma Mia
DYEAR=1900
DGENRE=Blues
TTITLE0=Overture - Prologue (Sophie)
TTITLE1=Honey, Honey (Sophie, Ali and Lisa)
TTITLE2=Money, Money, Money (Donna, Tanya, Rosie, Pepper and Company)
TTITLE3=Thank You For The Music (Sophie, Sam, Harry and Bill)
TTITLE4=Mamma Mia (Donna and Company)
TTITLE5=Chiquitita (Tanya, Rosie and Donna)
TTITLE6=Dancing Queen (Tanya, Rosie and Donna)
TTITLE7=Lay All Your Love On Me  (Sky, Sophie and Company)
TTITLE8=Super Trouper (Donna, Rosie, Tanya and Female Ensemble)
TTITLE9=Gimme! Gimme! Gimme! (Female Ensemble)
TTITLE10=The Name Of The Game (Sophie and Bill)
TTITLE11=Voulez-Vous (The Company)
TTITLE12=Entr'acte
TTITLE13=Under Attack (Sophie and Company)
TTITLE14=One Of Us (Donna)
TTITLE15=S.O.S. (Donna and Sam)
TTITLE16=Does Your Mother Know (Tanya, Pepper and Company)
TTITLE17=Knowing Me, Knowing You (Sam)
TTITLE18=Our Last Summer (Harry and Donna)
TTITLE19=Slipping Through My Fingers (Donna and Sophie)
TTITLE20=The Winner Takes It All (Donna)
TTITLE21=Take A Chance On Me (Rosie and Bill)
TTITLE22=I Do, I Do, I Do, I Do, I Do (Sam, Donna and Company)
TTITLE23=I Have A Dream (Sophie)
EXTD=
EXTT0=
EXTT1=
EXTT2=
EXTT3=
EXTT4=
EXTT5=
EXTT6=
EXTT7=
EXTT8=
EXTT9=
EXTT10=
EXTT11=
EXTT12=
EXTT13=
EXTT14=
EXTT15=
EXTT16=
EXTT17=
EXTT18=
EXTT19=
EXTT20=
EXTT21=
EXTT22=
EXTT23=
PLAYORDER=
